# xmcd
#
# Track frame offsets:
#	150
#	28165
#	43105
#	60630
#	75523
#	95203
#	109070
#	129478
#	145608
#	165743
#	179670
#	195828
#	211320
#	227860
#	243913
#	260420
#	277291
#	293785
#	314688
#	328553
#
# Disc length: 4653 seconds
#
# Revision: 1
# Processed by: cddbd v1.5.2PL0 Copyright (c) Steve Scherf et al.
# Submitted via: audiograbber 1.83.01
#
DISCID=2d122b14
DTITLE=Various Artist - Defqon 1 Festival 2009 CD1
DYEAR=2009
DGENRE=Hardstyle
TTITLE0=Headhunterz - Scrap Attack
TTITLE1=Williams Syndrome - Emotions
TTITLE2=D-Block and S-Te-Fan - Music made addict
TTITLE3=The Pitcher - Serenity
TTITLE4=Wildstylez - Phantom Beat
TTITLE5=Noisecontrollers - Addictive Fantasy
TTITLE6=The Prophet - Recession
TTITLE7=Headhunterz and Wildstylez meets Noisecontrollers - Tonight
TTITLE8=Technoboy - Ti Sento
TTITLE9=Noisecontrollers - Revolution is here
TTITLE10=Project 1 - Rate Reducer
TTITLE11=Zany - Break away
TTITLE12=Zany - Maximum Force
TTITLE13=Wildstylez - KYHU
TTITLE14=Zatox meets The R3bels - Choirs
TTITLE15=Noisecontrollers - Yellow Minute
TTITLE16=Pavo - Communicate
TTITLE17=Noisecontrollers - Samara
TTITLE18=Alpha² - Unleashed
TTITLE19=Donkey Rollers - Innocent
EXTD=
EXTT0=
EXTT1=
EXTT2=
EXTT3=
EXTT4=
EXTT5=
EXTT6=
EXTT7=
EXTT8=
EXTT9=
EXTT10=
EXTT11=
EXTT12=
EXTT13=
EXTT14=
EXTT15=
EXTT16=
EXTT17=
EXTT18=
EXTT19=
PLAYORDER=
